<svg xmlns="http://www.w3.org/2000/svg" viewBox="0 0 1200 630" width="1200" height="630">
  <defs>
    <linearGradient id="bg" x1="0" y1="0" x2="1" y2="1">
      <stop offset="0" stop-color="#fffdf7"/>
      <stop offset="1" stop-color="#fbf6ea"/>
    </linearGradient>
    <linearGradient id="hex" x1="0" y1="0" x2="1" y2="1">
      <stop offset="0" stop-color="#eeb455"/>
      <stop offset="0.55" stop-color="#c77f22"/>
      <stop offset="1" stop-color="#9c5d18"/>
    </linearGradient>
  </defs>

  <rect width="1200" height="630" fill="url(#bg)"/>

  <!-- faint honeycomb texture -->
  <g fill="none" stroke="#c79a4a" stroke-opacity="0.10" stroke-width="2">
    <path d="M980 60 L1060 106 L1060 198 L980 244 L900 198 L900 106 Z"/>
    <path d="M1060 198 L1140 244 L1140 336 L1060 382 L980 336 L980 244 Z"/>
    <path d="M900 198 L980 244 L980 336 L900 382 L820 336 L820 244 Z"/>
    <path d="M980 336 L1060 382 L1060 474 L980 520 L900 474 L900 382 Z"/>
  </g>

  <!-- mark -->
  <g transform="translate(110,235) scale(0.31)">
    <rect width="512" height="512" rx="116" fill="url(#hex)"/>
    <polygon points="92,252 175,108 339,108 422,252 339,396 175,396"
      fill="none" stroke="#fffdf7" stroke-width="19" stroke-linejoin="round" opacity="0.9"/>
    <g fill="#fffdf7" opacity="0.95">
      <ellipse cx="212" cy="210" rx="31" ry="48" transform="rotate(-24 212 210)"/>
      <ellipse cx="300" cy="210" rx="31" ry="48" transform="rotate(24 300 210)"/>
    </g>
    <ellipse cx="256" cy="258" rx="46" ry="60" fill="#f7b733"/>
    <g fill="#2c2316">
      <rect x="204" y="220" width="104" height="20"/>
      <rect x="204" y="258" width="104" height="20"/>
      <rect x="204" y="296" width="104" height="20"/>
    </g>
    <circle cx="256" cy="198" r="23" fill="#2c2316"/>
    <g stroke="#2c2316" stroke-width="7" fill="none" stroke-linecap="round">
      <path d="M247 181 q-12 -20 -26 -25"/>
      <path d="M265 181 q12 -20 26 -25"/>
    </g>
  </g>

  <text x="290" y="300" font-family="Fraunces, Georgia, serif" font-size="88" font-weight="700" fill="#2c2316">Openbeehive</text>
  <text x="293" y="370" font-family="'Hanken Grotesk', sans-serif" font-size="38" fill="#6b5e48">Documentation</text>
  <text x="293" y="430" font-family="'Hanken Grotesk', sans-serif" font-size="30" fill="#a4641a">Offline-first beekeeping records</text>
</svg>
